<?xml version="1.0" encoding="UTF-8"?> <svg xmlns="http://www.w3.org/2000/svg" width="320" height="61" viewBox="0 0 320 61" fill="none"><path d="M110.794 8.39409V48.8976H101.153V32.0687H85.579V48.8976H75.938V8.39409H85.579V24.6526H101.153V8.39409H110.794Z" fill="white"></path><path d="M127.953 49.5822C121.564 49.5822 118.369 46.0072 118.369 38.8573V20.374H127.497V37.26C127.497 40.835 128.866 42.6224 131.604 42.6224C133.087 42.6224 134.247 42.09 135.084 41.0251C135.959 39.9222 136.396 38.477 136.396 36.6895V20.374H145.581V48.8976H136.852V43.7063C136.168 45.5318 135.027 46.977 133.43 48.0419C131.832 49.0688 130.007 49.5822 127.953 49.5822Z" fill="white"></path><path d="M170.826 49.5822C168.849 49.5822 167.099 49.1448 165.578 48.2701C164.095 47.3574 162.973 46.1213 162.212 44.562L161.642 48.8976H153.484V7.53838H162.669V24.2532C163.429 22.8461 164.532 21.7431 165.977 20.9445C167.461 20.1078 169.172 19.6894 171.112 19.6894C174.61 19.6894 177.387 21.0586 179.44 23.7968C181.532 26.4971 182.578 30.1101 182.578 34.6358C182.578 39.1616 181.513 42.7936 179.383 45.5318C177.254 48.2321 174.401 49.5822 170.826 49.5822ZM167.746 43.25C169.495 43.25 170.826 42.5083 171.739 41.0251C172.69 39.5419 173.165 37.4121 173.165 34.6358C173.165 31.8976 172.69 29.7868 171.739 28.3036C170.826 26.7823 169.476 26.0407 167.689 26.0787C166.053 26.0787 164.76 26.7443 163.81 28.0754C162.897 29.3685 162.44 31.1559 162.44 33.4378V35.8338C162.44 38.1537 162.897 39.9792 163.81 41.3103C164.76 42.6034 166.072 43.25 167.746 43.25Z" fill="white"></path><path d="M199.253 49.5822C192.598 49.5822 187.882 47.3003 185.106 42.7365L190.411 38.7432C192.427 41.8238 195.431 43.364 199.424 43.364C202.391 43.364 203.874 42.5274 203.874 40.854C203.874 40.0173 203.589 39.4088 203.018 39.0285C202.448 38.6101 201.383 38.2868 199.824 38.0587L195.716 37.4882C189.669 36.5754 186.646 33.647 186.646 28.7029C186.646 25.9266 187.749 23.7398 189.955 22.1425C192.198 20.5071 195.279 19.6894 199.196 19.6894C202.087 19.6894 204.673 20.2029 206.955 21.2297C209.237 22.2185 210.967 23.5877 212.146 25.3371L207.411 29.6157C205.167 27.0676 202.334 25.7935 198.911 25.7935C196.249 25.7935 194.918 26.5731 194.918 28.1324C194.918 28.817 195.165 29.3685 195.659 29.7868C196.192 30.1671 197.066 30.4333 198.283 30.5855L203.361 31.3841C206.327 31.8025 208.476 32.7533 209.807 34.2365C211.176 35.6817 211.861 37.6593 211.861 40.1694C211.861 43.0978 210.739 45.3987 208.495 47.0721C206.289 48.7455 203.209 49.5822 199.253 49.5822Z" fill="white"></path><path d="M234.499 20.374V26.4781H227.882V48.8976H218.754V26.4781H214.19V20.374H218.754V17.6928C218.754 14.308 219.705 11.7218 221.606 9.93437C223.546 8.10886 226.322 7.1961 229.935 7.1961C231.571 7.1961 233.092 7.36724 234.499 7.70952V14.27C233.434 14.0798 232.502 13.9847 231.704 13.9847C229.156 13.9847 227.882 15.2968 227.882 17.921V20.374H234.499Z" fill="white"></path><path d="M264.79 33.9513V36.6895H244.994C245.032 38.6291 245.641 40.1694 246.82 41.3103C248.037 42.4513 249.615 43.0218 251.555 43.0218C254.369 43.0218 256.442 41.6907 257.773 39.0285L264.505 42.109C263.364 44.467 261.633 46.3115 259.313 47.6426C257.031 48.9357 254.407 49.5822 251.441 49.5822C246.725 49.5822 243.017 48.2891 240.317 45.703C237.654 43.1168 236.323 39.5229 236.323 34.9211C236.323 30.2432 237.616 26.5351 240.202 23.7968C242.827 21.0586 246.364 19.6894 250.813 19.6894C255.301 19.6894 258.743 20.9445 261.139 23.4546C263.573 25.9266 264.79 29.4255 264.79 33.9513ZM255.948 31.5553V31.3271C255.948 29.3114 255.491 27.7711 254.578 26.7063C253.666 25.6414 252.354 25.1089 250.642 25.1089C248.893 25.1089 247.524 25.6794 246.535 26.8203C245.584 27.9233 245.07 29.5016 244.994 31.5553H255.948Z" fill="white"></path><path d="M279.139 27.7331C280.698 22.3707 283.874 19.6894 288.665 19.6894H289.236V28.4177C288.856 28.3796 288.285 28.3606 287.525 28.3606C285.167 28.3606 283.322 28.9311 281.991 30.072C280.47 31.5172 279.709 33.9132 279.709 37.26V48.8976H270.524V20.374H279.139V27.7331Z" fill="white"></path><path d="M301.117 49.5822C298.189 49.5822 295.812 48.8216 293.986 47.3003C292.199 45.741 291.305 43.6873 291.305 41.1392C291.305 38.4009 292.275 36.3472 294.215 34.9781C296.116 33.647 299.102 32.7152 303.171 32.1828L310.074 31.213V30.2432C310.074 27.1246 308.667 25.5653 305.852 25.5653C303 25.5653 301.479 26.9725 301.289 29.7868H292.218C292.446 26.6302 293.758 24.1581 296.154 22.3707C298.588 20.5832 301.84 19.6894 305.909 19.6894C310.511 19.6894 313.877 20.6402 316.007 22.5418C318.136 24.4053 319.201 27.3908 319.201 31.4982V40.9681C319.201 44.4289 319.468 47.0721 320 48.8976H311.101C310.872 47.7567 310.72 46.2544 310.644 44.3909C309.922 45.9882 308.705 47.2623 306.993 48.2131C305.282 49.1258 303.323 49.5822 301.117 49.5822ZM304.54 43.7634C306.29 43.7634 307.697 43.2309 308.762 42.1661C309.827 41.1012 310.359 39.713 310.359 38.0016V35.7197L305.453 36.5184C302.182 37.1269 300.547 38.439 300.547 40.4546C300.547 41.4435 300.908 42.2421 301.631 42.8506C302.353 43.4591 303.323 43.7634 304.54 43.7634Z" fill="white"></path><path d="M46.5225 34.9719C46.7999 33.9367 46.0199 32.9202 44.9482 32.9202H29.8311C28.9309 32.9202 28.2012 33.6499 28.2012 34.5501V49.3369C28.2012 49.7423 28.3522 50.1331 28.6249 50.4331L37.2398 59.9125C38.1071 60.8668 39.6867 60.4838 40.0204 59.2382L46.5225 34.9719Z" fill="white"></path><path d="M19.6421 36.332C19.6421 37.8219 17.808 38.5308 16.8059 37.4282L0.424519 19.403C-0.373455 18.525 0.00414233 17.1158 1.13423 16.7544L17.5156 11.5153C18.5673 11.1789 19.6421 11.9636 19.6421 13.0677V36.332Z" fill="white"></path><path d="M29.3346 7.73537C28.6594 7.95132 28.2012 8.57893 28.2012 9.28783V24.2236C28.2012 25.1238 28.9309 25.8535 29.8311 25.8535H47.7151C48.4528 25.8535 49.0986 25.358 49.2895 24.6454L55.3429 2.05408C55.6766 0.808479 54.5002 -0.313054 53.272 0.0797633L29.3346 7.73537Z" fill="white"></path></svg> 